HIERARCHY
ROOT SpineBase
{
  OFFSET 0.000000 0.000000 0.000000
  CHANNELS 6 Xposition Yposition Zposition Zrotation Xrotation Yrotation
  JOINT SpineMid
  {
    OFFSET 0.000000 24.611034 0.000000
    CHANNELS 3 Zrotation Xrotation Yrotation
    JOINT SpineShoulder
    {
      OFFSET 0.007989 18.529709 -0.538668
      CHANNELS 3 Zrotation Xrotation Yrotation
      JOINT Neck
      {
        OFFSET -0.020030 6.218419 -0.469943
        CHANNELS 3 Zrotation Xrotation Yrotation
        JOINT Head
        {
          OFFSET 3.438001 12.401906 1.509472
          CHANNELS 3 Zrotation Xrotation Yrotation
          End Site
          {
            OFFSET 0 0 0
          }
        }
      }
      JOINT ShoulderLeft
      {
        OFFSET -13.062784 -1.364316 -10.371651
        CHANNELS 3 Zrotation Xrotation Yrotation
        JOINT ElbowLeft
        {
          OFFSET -4.936133 -18.870536 -6.707241
          CHANNELS 3 Zrotation Xrotation Yrotation
          JOINT WristLeft
          {
            OFFSET -12.700180 -9.613659 -12.939986
            CHANNELS 3 Zrotation Xrotation Yrotation
            JOINT HandLeft
            {
              OFFSET 2.283341 -2.498039 0.558099
              CHANNELS 3 Zrotation Xrotation Yrotation
              JOINT HandTipLeft
              {
                OFFSET 0.526374 -5.841224 1.894555
                CHANNELS 3 Zrotation Xrotation Yrotation
                End Site
                {
                  OFFSET 0 0 0
                }
              }
              JOINT ThumbLeft
              {
                OFFSET 1.100198 -3.749870 -1.370815
                CHANNELS 3 Zrotation Xrotation Yrotation
                End Site
                {
                  OFFSET 0 0 0
                }
              }
            }
          }
        }
      }
      JOINT ShoulderRight
      {
        OFFSET 15.016509 -6.431753 1.674290
        CHANNELS 3 Zrotation Xrotation Yrotation
        JOINT ElbowRight
        {
          OFFSET 4.101384 -23.547148 -2.631232
          CHANNELS 3 Zrotation Xrotation Yrotation
          JOINT WristRight
          {
            OFFSET -0.339796 -8.566569 -20.234913
            CHANNELS 3 Zrotation Xrotation Yrotation
            JOINT HandRight
            {
              OFFSET 2.489410 0.904882 -4.310096
              CHANNELS 3 Zrotation Xrotation Yrotation
              JOINT HandTipRight
              {
                OFFSET 4.324097 -1.679796 -6.254267
                CHANNELS 3 Zrotation Xrotation Yrotation
                End Site
                {
                  OFFSET 0 0 0
                }
              }
              JOINT ThumbRight
              {
                OFFSET -4.553308 -1.407876 -2.788493
                CHANNELS 3 Zrotation Xrotation Yrotation
                End Site
                {
                  OFFSET 0 0 0
                }
              }
            }
          }
        }
      }
    }
  }
  JOINT HipLeft
  {
    OFFSET -6.332030 1.795753 -5.280677
    CHANNELS 3 Zrotation Xrotation Yrotation
    JOINT KneeLeft
    {
      OFFSET 7.582013 1.615294 -34.107965
      CHANNELS 3 Zrotation Xrotation Yrotation
      JOINT AnkleLeft
      {
        OFFSET 3.080969 -33.528454 -9.859914
        CHANNELS 3 Zrotation Xrotation Yrotation
        JOINT FootLeft
        {
          OFFSET 4.782675 -5.748964 -5.040959
          CHANNELS 3 Zrotation Xrotation Yrotation
          End Site
          {
            OFFSET 0 0 0
          }
        }
      }
    }
  }
  JOINT HipRight
  {
    OFFSET 6.032930 1.054775 -0.513447
    CHANNELS 3 Zrotation Xrotation Yrotation
    JOINT KneeRight
    {
      OFFSET 18.032294 -2.147143 -28.319111
      CHANNELS 3 Zrotation Xrotation Yrotation
      JOINT AnkleRight
      {
        OFFSET -0.489235 -33.390396 -8.395745
        CHANNELS 3 Zrotation Xrotation Yrotation
        JOINT FootRight
        {
          OFFSET -1.688850 -7.473167 1.144654
          CHANNELS 3 Zrotation Xrotation Yrotation
          End Site
          {
            OFFSET 0 0 0
          }
        }
      }
    }
  }
}
MOTION
Frames: 9
Frame Time: 0.033333
19.370538 41.727319 360.047851 -3.912146 -3.676206 -17.914030 0.425968 -0.542759 17.655990 0.090496 0.040516 -0.180951 3.560958 4.301164 0.149703 0.000000 0.000000 0.000000 2.667631 2.342345 1.035701 2.021589 -0.292431 0.603813 -9.216070 7.865344 2.687885 9.253013 6.197841 -1.632650 0.000000 0.000000 0.000000 0.000000 0.000000 0.000000 14.108844 5.901775 -1.662864 -62.728767 24.254876 77.308257 25.399502 -55.613344 34.917244 1.497611 32.784347 7.947619 0.000000 0.000000 0.000000 0.000000 0.000000 0.000000 2.702874 1.438229 15.107728 -2.196408 1.974699 3.468458 7.596106 5.449628 -1.264062 0.000000 0.000000 0.000000 1.902071 2.050088 17.736442 0.155531 2.347068 0.340161 16.848022 58.955716 -23.955051 0.000000 0.000000 0.000000
19.384337 41.714789 360.061160 -3.904672 -3.699159 -17.906620 0.400882 -0.512867 17.649299 0.075860 0.060642 -0.181079 3.582770 4.267950 0.151468 0.000000 0.000000 0.000000 3.738236 1.975218 0.693923 1.624714 -0.648607 0.979911 -11.924224 7.094433 0.815367 10.390879 6.698103 -0.042433 0.000000 0.000000 0.000000 0.000000 0.000000 0.000000 14.009798 6.737254 -1.558729 -62.794453 24.270998 76.929214 41.969590 -32.497160 46.936382 -17.153772 26.261582 8.603979 0.000000 0.000000 0.000000 0.000000 0.000000 0.000000 2.691623 1.517791 15.190883 -2.185917 1.904101 3.364649 7.600659 7.605285 0.314432 0.000000 0.000000 0.000000 1.898610 2.116993 17.779396 0.592331 1.728280 0.159947 17.316845 63.078302 -26.589595 0.000000 0.000000 0.000000
19.397483 41.705212 360.076132 -3.913181 -3.707102 -17.885849 0.357344 -0.485331 17.628838 0.056891 0.080019 -0.182879 3.643003 4.217370 0.155230 0.000000 0.000000 0.000000 4.140944 1.811221 0.588134 1.930509 -1.322450 1.285798 -11.702027 10.050751 3.231964 7.772606 -0.253072 -3.293995 0.000000 0.000000 0.000000 0.000000 0.000000 0.000000 14.296792 7.554749 -1.521004 -62.978698 24.125404 76.353044 46.566144 -22.221358 48.410417 -22.893587 24.307879 8.560039 0.000000 0.000000 0.000000 0.000000 0.000000 0.000000 2.692612 1.778547 15.333201 -2.064942 1.802229 3.145177 7.078667 9.529893 2.151057 0.000000 0.000000 0.000000 1.977683 2.401103 17.750410 0.288330 0.831306 0.213274 17.308721 67.815412 -29.294571 0.000000 0.000000 0.000000
19.410973 41.697236 360.086438 -3.915001 -3.730052 -17.868412 0.346197 -0.461313 17.611246 0.056220 0.087709 -0.182844 3.648565 4.206342 0.155762 0.000000 0.000000 0.000000 4.100225 1.665633 0.644079 4.658337 -2.468587 -0.890448 -22.282488 13.075504 8.302557 16.565893 -1.393335 -2.721009 0.000000 0.000000 0.000000 0.000000 0.000000 0.000000 14.666713 8.461437 -1.522604 -63.163176 23.885818 75.625016 49.347690 -15.460349 48.675114 -23.699812 23.838398 8.024438 0.000000 0.000000 0.000000 0.000000 0.000000 0.000000 2.690001 1.978787 15.518992 -1.861793 1.773453 2.865146 6.806935 10.116585 2.735212 0.000000 0.000000 0.000000 1.925520 2.256832 17.821681 0.417134 0.297676 0.120114 10.953915 72.335391 -27.535381 0.000000 0.000000 0.000000
19.421759 41.692185 360.090642 -3.920114 -3.749735 -17.862850 0.339209 -0.436719 17.605407 0.054068 0.098398 -0.182716 3.654897 4.189815 0.156483 0.000000 0.000000 0.000000 3.611789 1.534717 0.876972 8.096282 -4.359777 -2.752536 -34.196205 14.118438 11.609802 26.540504 2.703010 0.251901 0.000000 0.000000 0.000000 0.000000 0.000000 0.000000 15.291490 9.744699 -1.557563 -63.378375 23.424164 74.475058 50.772052 -10.801200 49.475390 -21.920667 24.136894 6.619598 0.000000 0.000000 0.000000 0.000000 0.000000 0.000000 2.683813 2.274457 15.720769 -1.694684 1.647703 2.584758 6.302064 9.400632 2.607901 0.000000 0.000000 0.000000 1.859920 2.044452 17.902419 0.480525 -0.040674 0.055746 -9.465041 74.727955 -13.900673 0.000000 0.000000 0.000000
19.425356 41.693518 360.093682 -3.907995 -3.782301 -17.868731 0.374045 -0.426043 17.610882 0.068116 0.093444 -0.180284 3.592371 4.227324 0.152981 0.000000 0.000000 0.000000 2.618331 1.514826 1.266050 10.807833 -5.271436 -4.756642 -38.499494 17.715267 20.098299 28.225349 -0.934524 -2.436375 0.000000 0.000000 0.000000 0.000000 0.000000 0.000000 15.393384 10.109034 -1.582252 -63.320364 23.185763 74.100424 51.112805 -9.883530 49.465021 -21.271655 24.025252 6.023563 0.000000 0.000000 0.000000 0.000000 0.000000 0.000000 2.644027 2.653681 15.841230 -1.675868 1.352566 2.433789 5.515286 8.056841 2.301741 0.000000 0.000000 0.000000 1.762567 1.793992 17.982136 0.525726 -0.001603 0.014008 -16.557369 74.261750 -8.665396 0.000000 0.000000 0.000000
19.425906 41.695661 360.093131 -3.867046 -3.813402 -17.904914 0.434540 -0.411034 17.648460 0.092808 0.091060 -0.174911 3.465158 4.264131 0.147049 0.000000 0.000000 0.000000 2.488348 1.618059 1.244560 11.606613 -6.101895 -4.832633 -43.312307 17.805528 21.285124 32.175163 -2.302523 -1.235165 0.000000 0.000000 0.000000 0.000000 0.000000 0.000000 15.380429 10.777407 -1.576867 -63.058954 22.814235 73.394568 51.388701 -8.224995 50.018356 -24.737288 23.773359 6.868205 0.000000 0.000000 0.000000 0.000000 0.000000 0.000000 2.581902 2.844135 15.892964 -1.709244 1.335191 2.430295 4.460956 5.997355 1.806931 0.000000 0.000000 0.000000 1.653790 1.589361 18.049650 0.543746 0.253306 0.014393 3.082864 79.102184 -24.833553 0.000000 0.000000 0.000000
19.420968 41.703816 360.089419 -3.784256 -3.848980 -17.962355 0.531869 -0.397996 17.709474 0.132241 0.082882 -0.165805 3.247415 4.323907 0.137168 0.000000 0.000000 0.000000 1.805804 1.589231 1.447047 10.306633 -4.796966 -4.102589 -29.731189 23.133954 24.531611 19.627992 -6.414237 -8.783614 0.000000 0.000000 0.000000 0.000000 0.000000 0.000000 15.496424 11.725966 -1.616995 -62.908337 22.316774 72.434473 50.981440 -7.040076 51.477156 -26.883341 23.209330 5.564442 0.000000 0.000000 0.000000 0.000000 0.000000 0.000000 2.485880 2.810638 15.850632 -1.811390 1.488320 2.585820 4.211769 2.674630 -0.406381 0.000000 0.000000 0.000000 1.489564 1.321940 18.141631 0.531254 0.762770 0.031797 10.232194 72.536782 -26.822997 0.000000 0.000000 0.000000
19.419716 41.716782 360.095408 -3.683355 -3.902856 -18.020289 0.633076 -0.393295 17.771306 0.164382 0.066677 -0.156463 3.017728 4.419305 0.126245 0.000000 0.000000 0.000000 0.993654 1.500037 1.721410 10.215247 -4.375476 -3.767023 -22.945246 28.467881 28.595757 9.244440 -14.240005 -16.686855 0.000000 0.000000 0.000000 0.000000 0.000000 0.000000 15.438513 12.189985 -1.664642 -62.709700 22.000031 71.880300 47.899703 -9.363605 55.663007 -26.253115 23.150917 0.672127 0.000000 0.000000 0.000000 0.000000 0.000000 0.000000 2.386164 2.607355 15.894164 -1.833526 1.801778 2.644352 3.397851 -1.420324 -2.981569 0.000000 0.000000 0.000000 1.302513 1.066199 18.259226 0.490002 1.506966 0.035211 19.127017 68.595108 -30.613249 0.000000 0.000000 0.000000
